<svg width="61" height="61" viewBox="0 0 61 61" fill="none" xmlns="http://www.w3.org/2000/svg">
<path d="M46.2255 22.0487L46.2457 23.1005C46.2457 33.902 38.0425 46.3824 23.0469 46.3824C18.4514 46.3824 14.1583 45.0271 10.5505 42.6808C11.1754 42.7617 11.8203 42.8021 12.4855 42.8021C16.315 42.8021 19.822 41.4873 22.6034 39.2825C19.0359 39.2219 16.0328 36.8552 14.9847 33.5986C15.4886 33.6997 15.9925 33.7402 16.5165 33.7402C17.2623 33.7402 17.9879 33.6391 18.653 33.457C14.9242 32.7086 12.1227 29.4115 12.1227 25.4469V25.366C13.211 25.9728 14.4607 26.3369 15.8111 26.3774C13.6343 24.921 12.2033 22.3926 12.2033 19.5809C12.2033 18.0841 12.6064 16.6682 13.3118 15.4545C17.3026 20.4103 23.329 23.6467 30.1012 23.9905C29.9602 23.4039 29.8997 22.7769 29.8997 22.1296C29.8997 17.6189 33.5277 13.9577 38.0425 13.9577C40.3805 13.9577 42.5169 14.9489 44.0084 16.5266C45.8426 16.1625 47.5961 15.495 49.1884 14.5645C48.5837 16.4659 47.2938 18.0841 45.6007 19.0955C47.2535 18.8932 48.8256 18.4482 50.2969 17.8009C49.1884 19.4394 47.7977 20.8957 46.2255 22.0487Z" fill="white"/>
</svg>
