<svg width="61" height="61" viewBox="0 0 61 61" fill="none" xmlns="http://www.w3.org/2000/svg">
<path d="M44.819 10.97H16.2782C13.5591 10.97 11.3486 12.9849 11.3486 15.8996V44.4404C11.3486 47.3552 13.5591 49.37 16.2782 49.37H44.819C47.5381 49.37 49.7486 47.3552 49.7486 44.4404V15.8996C49.7486 12.9849 47.5381 10.97 44.819 10.97ZM37.6007 16.9755C37.6007 16.017 38.3832 15.2541 39.3221 15.2541H43.6649C44.6234 15.2541 45.3863 16.0366 45.3863 16.9755V21.1227C45.3863 22.0812 44.6039 22.8441 43.6649 22.8441H39.3221C38.3636 22.8441 37.6007 22.0616 37.6007 21.1227V16.9755ZM30.5975 22.6289C34.862 22.6289 38.3049 25.974 38.3049 30.1016C38.3049 34.2291 34.8425 37.5742 30.5975 37.5742C26.333 37.5742 22.8901 34.2291 22.8901 30.1016C22.8901 25.974 26.333 22.6289 30.5975 22.6289ZM45.4059 43.4428C45.4059 44.2839 44.7212 44.9686 43.8801 44.9686H17.139C16.2978 44.9686 15.6131 44.2839 15.6131 43.4428V27.2064H19.1343C18.8213 28.2432 18.6452 29.3582 18.6452 30.4928C18.6452 36.8895 23.9856 42.0539 30.578 42.0539C37.1703 42.0539 42.5107 36.87 42.5107 30.4928C42.5107 29.3582 42.3347 28.2432 42.0217 27.2064H45.4059V43.4428Z" fill="white"/>
</svg>
