<svg width="60" height="61" viewBox="0 0 60 61" fill="none" xmlns="http://www.w3.org/2000/svg">
<path d="M48.8444 49.3015L48.8638 35.346C48.8638 28.513 47.3968 23.2628 39.4057 23.2628C35.5645 23.2628 32.9973 25.3667 31.9357 27.3741H31.8199V23.8804H24.2534V49.2822H32.1287V36.7164C32.1287 33.3964 32.7657 30.1923 36.8578 30.1923C40.8919 30.1923 40.9691 33.9755 40.9691 36.9287V49.3015H48.8444Z" fill="white"/>
<path d="M19.3319 23.8804H11.4373V49.2822H19.3319V23.8804Z" fill="white"/>
<path d="M15.3747 11.2375C12.8461 11.2375 10.8 13.2835 10.8 15.8121C10.8 18.3407 12.8461 20.4254 15.3747 20.4254C17.9033 20.4254 19.9493 18.3407 19.9493 15.8121C19.9493 13.2835 17.9033 11.2375 15.3747 11.2375Z" fill="white"/>
</svg>
